<?xml version="1.0" encoding="UTF-8" standalone="yes"?><svg xmlns="http://www.w3.org/2000/svg" xmlns:xlink="http://www.w3.org/1999/xlink" version="1.2" baseProfile="tiny" x="0" y="0" width="1500" height="1000" viewBox="0 0 1500 1000"><defs/><text font-family="Arial" font-size="28" font-weight="700" text-anchor="middle" x="750" y="50"><tspan>HeartChat项目开发进度图 (2025年1月-4月)</tspan></text><rect fill="#ffffff" stroke="#dddddd" stroke-width="1" x="100" y="100" width="1300" height="700"/><g stroke="#eeeeee" stroke-width="1"><line x1="200" y1="100" x2="200" y2="800"/><line x1="300" y1="100" x2="300" y2="800"/><line x1="400" y1="100" x2="400" y2="800"/><line x1="500" y1="100" x2="500" y2="800"/><line x1="600" y1="100" x2="600" y2="800"/><line x1="700" y1="100" x2="700" y2="800"/><line x1="800" y1="100" x2="800" y2="800"/><line x1="900" y1="100" x2="900" y2="800"/><line x1="1000" y1="100" x2="1000" y2="800"/><line x1="1100" y1="100" x2="1100" y2="800"/><line x1="1200" y1="100" x2="1200" y2="800"/><line x1="1300" y1="100" x2="1300" y2="800"/><line x1="100" y1="170" x2="1400" y2="170"/><line x1="100" y1="240" x2="1400" y2="240"/><line x1="100" y1="310" x2="1400" y2="310"/><line x1="100" y1="380" x2="1400" y2="380"/><line x1="100" y1="450" x2="1400" y2="450"/><line x1="100" y1="520" x2="1400" y2="520"/><line x1="100" y1="590" x2="1400" y2="590"/><line x1="100" y1="660" x2="1400" y2="660"/><line x1="100" y1="730" x2="1400" y2="730"/></g><g font-family="Arial" font-size="16" text-anchor="middle"><text font-weight="700" x="150" y="130"><tspan>模块/时间</tspan></text><text x="200" y="130"><tspan>1月第1周</tspan></text><text x="300" y="130"><tspan>1月第2周</tspan></text><text x="400" y="130"><tspan>1月第3周</tspan></text><text x="500" y="130"><tspan>1月第4周</tspan></text><text x="600" y="130"><tspan>2月第1周</tspan></text><text x="700" y="130"><tspan>2月第2周</tspan></text><text x="800" y="130"><tspan>2月第3周</tspan></text><text x="900" y="130"><tspan>2月第4周</tspan></text><text x="1000" y="130"><tspan>3月第1周</tspan></text><text x="1100" y="130"><tspan>3月第2周</tspan></text><text x="1200" y="130"><tspan>3月第3周</tspan></text><text x="1300" y="130"><tspan>3月第4周</tspan></text><text x="1400" y="130"><tspan>4月第1周</tspan></text></g><g font-family="Arial" font-size="16" text-anchor="end"><text font-weight="700" x="95" y="205"><tspan>基础架构</tspan></text><text font-weight="700" x="95" y="275"><tspan>用户系统</tspan></text><text font-weight="700" x="95" y="345"><tspan>角色系统</tspan></text><text font-weight="700" x="95" y="415"><tspan>聊天系统</tspan></text><text font-weight="700" x="95" y="485"><tspan>情感分析</tspan></text><text font-weight="700" x="95" y="555"><tspan>用户画像</tspan></text><text font-weight="700" x="95" y="625"><tspan>UI优化</tspan></text><text font-weight="700" x="95" y="695"><tspan>性能优化</tspan></text><text font-weight="700" x="95" y="765"><tspan>功能扩展</tspan></text></g><g><rect fill="#4caf50" x="200" y="180" width="100" height="30" rx="5" ry="4.95"/><text fill="#ffffff" font-family="Arial" font-size="14" text-anchor="middle" x="250" y="200"><tspan>项目初始化</tspan></text><rect fill="#4caf50" x="300" y="180" width="100" height="30" rx="5" ry="4.95"/><text fill="#ffffff" font-family="Arial" font-size="14" text-anchor="middle" x="350" y="200"><tspan>云开发环境搭建</tspan></text><rect fill="#4caf50" x="400" y="180" width="100" height="30" rx="5" ry="4.95"/><text fill="#ffffff" font-family="Arial" font-size="14" text-anchor="middle" x="450" y="200"><tspan>分包结构设计</tspan></text><rect fill="#4caf50" x="500" y="180" width="100" height="30" rx="5" ry="4.95"/><text fill="#ffffff" font-family="Arial" font-size="14" text-anchor="middle" x="550" y="200"><tspan>组件化架构实现</tspan></text></g><g><rect fill="#4caf50" x="300" y="250" width="100" height="30" rx="5" ry="4.95"/><text fill="#ffffff" font-family="Arial" font-size="14" text-anchor="middle" x="350" y="270"><tspan>用户登录与授权</tspan></text><rect fill="#4caf50" x="400" y="250" width="100" height="30" rx="5" ry="4.95"/><text fill="#ffffff" font-family="Arial" font-size="14" text-anchor="middle" x="450" y="270"><tspan>用户资料管理</tspan></text><rect fill="#4caf50" x="500" y="250" width="100" height="30" rx="5" ry="4.95"/><text fill="#ffffff" font-family="Arial" font-size="14" text-anchor="middle" x="550" y="270"><tspan>用户中心页面</tspan></text></g><g><rect fill="#4caf50" x="500" y="320" width="100" height="30" rx="5" ry="4.95"/><text fill="#ffffff" font-family="Arial" font-size="14" text-anchor="middle" x="550" y="340"><tspan>角色数据结构设计</tspan></text><rect fill="#4caf50" x="600" y="320" width="100" height="30" rx="5" ry="4.95"/><text fill="#ffffff" font-family="Arial" font-size="14" text-anchor="middle" x="650" y="340"><tspan>角色选择页面</tspan></text><rect fill="#4caf50" x="700" y="320" width="100" height="30" rx="5" ry="4.95"/><text fill="#ffffff" font-family="Arial" font-size="14" text-anchor="middle" x="750" y="340"><tspan>角色创建与编辑</tspan></text><rect fill="#4caf50" x="800" y="320" width="100" height="30" rx="5" ry="4.95"/><text fill="#ffffff" font-family="Arial" font-size="14" text-anchor="middle" x="850" y="340"><tspan>提示词编辑器</tspan></text></g><g><rect fill="#4caf50" x="700" y="390" width="100" height="30" rx="5" ry="4.95"/><text fill="#ffffff" font-family="Arial" font-size="14" text-anchor="middle" x="750" y="410"><tspan>聊天界面设计</tspan></text><rect fill="#4caf50" x="800" y="390" width="100" height="30" rx="5" ry="4.95"/><text fill="#ffffff" font-family="Arial" font-size="14" text-anchor="middle" x="850" y="410"><tspan>消息发送与接收</tspan></text><rect fill="#4caf50" x="900" y="390" width="100" height="30" rx="5" ry="4.95"/><text fill="#ffffff" font-family="Arial" font-size="14" text-anchor="middle" x="950" y="410"><tspan>历史消息加载</tspan></text><rect fill="#4caf50" x="1000" y="390" width="100" height="30" rx="5" ry="4.95"/><text fill="#ffffff" font-family="Arial" font-size="14" text-anchor="middle" x="1050" y="410"><tspan>聊天记录本地缓存</tspan></text></g><g><rect fill="#4caf50" x="900" y="460" width="100" height="30" rx="5" ry="4.95"/><text fill="#ffffff" font-family="Arial" font-size="14" text-anchor="middle" x="950" y="480"><tspan>情感分析算法设计</tspan></text><rect fill="#4caf50" x="1000" y="460" width="100" height="30" rx="5" ry="4.95"/><text fill="#ffffff" font-family="Arial" font-size="14" text-anchor="middle" x="1050" y="480"><tspan>情感分析API集成</tspan></text><rect fill="#4caf50" x="1100" y="460" width="100" height="30" rx="5" ry="4.95"/><text fill="#ffffff" font-family="Arial" font-size="14" text-anchor="middle" x="1150" y="480"><tspan>情感可视化组件</tspan></text><rect fill="#4caf50" x="1200" y="460" width="100" height="30" rx="5" ry="4.95"/><text fill="#ffffff" font-family="Arial" font-size="14" text-anchor="middle" x="1250" y="480"><tspan>情绪历史记录</tspan></text></g><g><rect fill="#4caf50" x="200" y="530" width="100" height="30" rx="5" ry="4.95"/><text fill="#ffffff" font-family="Arial" font-size="14" text-anchor="middle" x="250" y="550"><tspan>用户画像设计</tspan></text><rect fill="#4caf50" x="300" y="530" width="100" height="30" rx="5" ry="4.95"/><text fill="#ffffff" font-family="Arial" font-size="14" text-anchor="middle" x="350" y="550"><tspan>关键词提取与分类</tspan></text><rect fill="#4caf50" x="400" y="530" width="100" height="30" rx="5" ry="4.95"/><text fill="#ffffff" font-family="Arial" font-size="14" text-anchor="middle" x="450" y="550"><tspan>用户兴趣分析</tspan></text><rect fill="#4caf50" x="500" y="530" width="100" height="30" rx="5" ry="4.95"/><text fill="#ffffff" font-family="Arial" font-size="14" text-anchor="middle" x="550" y="550"><tspan>个性特征分析</tspan></text></g><g><rect fill="#4caf50" x="400" y="600" width="100" height="30" rx="5" ry="4.95"/><text fill="#ffffff" font-family="Arial" font-size="14" text-anchor="middle" x="450" y="620"><tspan>暗黑模式支持</tspan></text><rect fill="#4caf50" x="500" y="600" width="100" height="30" rx="5" ry="4.95"/><text fill="#ffffff" font-family="Arial" font-size="14" text-anchor="middle" x="550" y="620"><tspan>自定义导航栏</tspan></text><rect fill="#4caf50" x="600" y="600" width="100" height="30" rx="5" ry="4.95"/><text fill="#ffffff" font-family="Arial" font-size="14" text-anchor="middle" x="650" y="620"><tspan>UI组件库优化</tspan></text><rect fill="#4caf50" x="700" y="600" width="100" height="30" rx="5" ry="4.95"/><text fill="#ffffff" font-family="Arial" font-size="14" text-anchor="middle" x="750" y="620"><tspan>动画与交互优化</tspan></text></g><g><rect fill="#ff9800" x="700" y="670" width="100" height="30" rx="5" ry="4.95"/><text fill="#ffffff" font-family="Arial" font-size="14" text-anchor="middle" x="750" y="690"><tspan>数据加载优化</tspan></text><rect fill="#4caf50" x="800" y="670" width="100" height="30" rx="5" ry="4.95"/><text fill="#ffffff" font-family="Arial" font-size="14" text-anchor="middle" x="850" y="690"><tspan>本地缓存策略</tspan></text><rect fill="#ff9800" x="900" y="670" width="100" height="30" rx="5" ry="4.95"/><text fill="#ffffff" font-family="Arial" font-size="14" text-anchor="middle" x="950" y="690"><tspan>网络请求优化</tspan></text><rect fill="#ff9800" x="1000" y="670" width="100" height="30" rx="5" ry="4.95"/><text fill="#ffffff" font-family="Arial" font-size="14" text-anchor="middle" x="1050" y="690"><tspan>启动性能优化</tspan></text></g><g><rect fill="#4caf50" x="900" y="740" width="100" height="30" rx="5" ry="4.95"/><text fill="#ffffff" font-family="Arial" font-size="14" text-anchor="middle" x="950" y="760"><tspan>每日心情报告</tspan></text><rect fill="#4caf50" x="1000" y="740" width="100" height="30" rx="5" ry="4.95"/><text fill="#ffffff" font-family="Arial" font-size="14" text-anchor="middle" x="1050" y="760"><tspan>情绪干预建议</tspan></text><rect fill="#9e9e9e" x="1100" y="740" width="100" height="30" rx="5" ry="4.95"/><text fill="#ffffff" font-family="Arial" font-size="14" text-anchor="middle" x="1150" y="760"><tspan>社交分享功能</tspan></text><rect fill="#9e9e9e" x="1200" y="740" width="100" height="30" rx="5" ry="4.95"/><text fill="#ffffff" font-family="Arial" font-size="14" text-anchor="middle" x="1250" y="760"><tspan>情绪日记功能</tspan></text></g><g transform="matrix(1,0,0,1,200,850)"><rect fill="#4caf50" x="0" y="0" width="30" height="20" rx="3" ry="3"/><text font-family="Arial" font-size="16" x="40" y="15"><tspan>已完成 (90%)</tspan></text><rect fill="#ff9800" x="150" y="0" width="30" height="20" rx="3" ry="3"/><text font-family="Arial" font-size="16" x="190" y="15"><tspan>进行中 (5%)</tspan></text><rect fill="#9e9e9e" x="300" y="0" width="30" height="20" rx="3" ry="3"/><text font-family="Arial" font-size="16" x="340" y="15"><tspan>计划中 (5%)</tspan></text></g><g transform="matrix(1,0,0,1,800,830)"><circle fill="none" stroke="#dddddd" stroke-width="1" cx="70" cy="70" r="70"/><path fill="#4caf50" d="M 70 70 L 70 0 C 108.66 0.00276142 139.998 31.3451 139.995 70.005 C 139.992 108.665 108.65 140.003 69.99 140 L 70 70 Z"/><path fill="#ff9800" d="M 70 70 L 69.99 140 C 63.5659 139.515 57.2395 138.145 51.19 135.93 L 70 70 Z"/><path fill="#9e9e9e" d="M 70 70 L 51.19 135.93 C 19.7489 124.917 0.425728 93.2705 4.99224 60.2707 C 9.55876 27.2709 36.7496 2.06144 70 7.77156e-15 L 70 70 Z"/><text font-family="Arial" font-size="18" font-weight="700" x="180" y="50"><tspan>功能完成度</tspan></text><text font-family="Arial" font-size="16" x="180" y="80"><tspan>已完成: 90%</tspan></text><text font-family="Arial" font-size="16" x="180" y="110"><tspan>进行中: 5%</tspan></text><text font-family="Arial" font-size="16" x="180" y="140"><tspan>计划中: 5%</tspan></text></g><text font-family="Arial" font-size="16" text-anchor="middle" x="750" y="950"><tspan>HeartChat项目文档 © 2025</tspan></text></svg>
